<svg width="10" height="10" viewBox="0 0 10 10" fill="none" xmlns="http://www.w3.org/2000/svg">
<path d="M8.946 4.186C9.186 4.186 9.378 4.264 9.522 4.42C9.678 4.564 9.756 4.756 9.756 4.996C9.756 5.224 9.678 5.41 9.522 5.554C9.378 5.698 9.186 5.77 8.946 5.77H6.174V8.524C6.174 8.788 6.09 9.01 5.922 9.19C5.754 9.358 5.532 9.442 5.256 9.442C4.992 9.442 4.77 9.358 4.59 9.19C4.422 9.01 4.338 8.788 4.338 8.524V5.77H1.584C1.356 5.77 1.164 5.692 1.008 5.536C0.852 5.38 0.774 5.188 0.774 4.96C0.774 4.732 0.846 4.546 0.99 4.402C1.146 4.258 1.344 4.186 1.584 4.186H4.338V1.252C4.338 0.988 4.422 0.772 4.59 0.604C4.77 0.436 4.992 0.352 5.256 0.352C5.532 0.352 5.754 0.436 5.922 0.604C6.09 0.772 6.174 0.988 6.174 1.252V4.186H8.946Z" fill="#A09F99"/>
</svg>
